<svg width="24" height="25" viewBox="0 0 24 25" fill="none" xmlns="http://www.w3.org/2000/svg">
<path d="M16.5 2.89062H7.5C6.10807 2.89211 4.77358 3.44572 3.78933 4.42996C2.80509 5.4142 2.25149 6.7487 2.25 8.14062V17.1406C2.25149 18.5326 2.80509 19.867 3.78933 20.8513C4.77358 21.8355 6.10807 22.3891 7.5 22.3906H16.5C17.8919 22.3891 19.2264 21.8355 20.2107 20.8513C21.1949 19.867 21.7485 18.5326 21.75 17.1406V8.14062C21.7485 6.7487 21.1949 5.4142 20.2107 4.42996C19.2264 3.44572 17.8919 2.89211 16.5 2.89062ZM12 17.1406C11.11 17.1406 10.24 16.8767 9.49993 16.3822C8.75991 15.8878 8.18314 15.185 7.84254 14.3627C7.50195 13.5404 7.41283 12.6356 7.58647 11.7627C7.7601 10.8898 8.18868 10.088 8.81802 9.45864C9.44736 8.82931 10.2492 8.40072 11.1221 8.22709C11.995 8.05346 12.8998 8.14257 13.7221 8.48317C14.5443 8.82376 15.2471 9.40054 15.7416 10.1406C16.2361 10.8806 16.5 11.7506 16.5 12.6406C16.4988 13.8337 16.0243 14.9776 15.1806 15.8212C14.337 16.6649 13.1931 17.1394 12 17.1406ZM17.625 8.14062C17.4025 8.14062 17.185 8.07465 17 7.95103C16.815 7.82741 16.6708 7.65171 16.5856 7.44614C16.5005 7.24058 16.4782 7.01438 16.5216 6.79615C16.565 6.57792 16.6722 6.37746 16.8295 6.22013C16.9868 6.0628 17.1873 5.95565 17.4055 5.91224C17.6238 5.86883 17.85 5.89111 18.0555 5.97626C18.2611 6.06141 18.4368 6.2056 18.5604 6.39061C18.684 6.57561 18.75 6.79312 18.75 7.01562C18.75 7.31399 18.6315 7.60014 18.4205 7.81112C18.2095 8.0221 17.9234 8.14062 17.625 8.14062ZM15 12.6406C15 13.234 14.8241 13.814 14.4944 14.3073C14.1648 14.8007 13.6962 15.1852 13.1481 15.4123C12.5999 15.6393 11.9967 15.6987 11.4147 15.583C10.8328 15.4672 10.2982 15.1815 9.87868 14.7619C9.45912 14.3424 9.1734 13.8078 9.05764 13.2259C8.94189 12.644 9.0013 12.0408 9.22836 11.4926C9.45542 10.9444 9.83994 10.4759 10.3333 10.1462C10.8266 9.81657 11.4067 9.64062 12 9.64062C12.7956 9.64062 13.5587 9.9567 14.1213 10.5193C14.6839 11.0819 15 11.845 15 12.6406Z" fill="#808080"/>
</svg>
