<svg width="24" height="25" viewBox="0 0 24 25" fill="none" xmlns="http://www.w3.org/2000/svg">
<path d="M4 7.64062C4 5.98363 5.343 4.64062 7 4.64062H17C18.657 4.64062 20 5.98363 20 7.64062V17.6406C20 19.2976 18.657 20.6406 17 20.6406H7C5.343 20.6406 4 19.2976 4 17.6406V7.64062ZM8.85 18.0336V10.8096H6.434V18.0336H8.85ZM7.642 9.82263C8.484 9.82263 9.009 9.26863 9.009 8.57463C8.993 7.86562 8.484 7.32662 7.658 7.32662C6.831 7.32662 6.291 7.86562 6.291 8.57463C6.291 9.26863 6.815 9.82263 7.626 9.82263H7.642ZM12.604 18.0336V13.9996C12.604 13.7836 12.62 13.5686 12.683 13.4136C12.858 12.9826 13.256 12.5356 13.923 12.5356C14.798 12.5356 15.148 13.1976 15.148 14.1696V18.0336H17.564V13.8916C17.564 11.6726 16.372 10.6396 14.782 10.6396C13.5 10.6396 12.925 11.3396 12.604 11.8326V10.8096H10.187C10.219 11.4846 10.188 17.9926 10.187 18.0346L12.604 18.0336Z" fill="#808080"/>
</svg>
