<svg width="24" height="25" viewBox="0 0 24 25" fill="none" xmlns="http://www.w3.org/2000/svg">
<path d="M21.9684 7.15813C21.8801 6.81252 21.7109 6.49286 21.4747 6.22553C21.2385 5.95821 20.9421 5.75087 20.61 5.62063C17.3962 4.37938 12.2812 4.39063 12 4.39063C11.7188 4.39063 6.60375 4.37938 3.39 5.62063C3.0579 5.75087 2.76153 5.95821 2.52534 6.22553C2.28915 6.49286 2.1199 6.81252 2.03156 7.15813C1.78875 8.09375 1.5 9.80375 1.5 12.6406C1.5 15.4775 1.78875 17.1875 2.03156 18.1231C2.11977 18.4689 2.28895 18.7888 2.52515 19.0563C2.76136 19.3238 3.0578 19.5312 3.39 19.6616C6.46875 20.8494 11.2875 20.8906 11.9381 20.8906H12.0619C12.7125 20.8906 17.5341 20.8494 20.61 19.6616C20.9422 19.5312 21.2386 19.3238 21.4748 19.0563C21.711 18.7888 21.8802 18.4689 21.9684 18.1231C22.2113 17.1856 22.5 15.4775 22.5 12.6406C22.5 9.80375 22.2113 8.09375 21.9684 7.15813ZM15.2081 12.9528L10.7081 15.9528C10.6516 15.9905 10.586 16.0121 10.5181 16.0154C10.4503 16.0187 10.3829 16.0035 10.323 15.9715C10.2631 15.9394 10.2131 15.8917 10.1782 15.8334C10.1434 15.7752 10.125 15.7085 10.125 15.6406V9.64063C10.125 9.57272 10.1434 9.50608 10.1782 9.44781C10.2131 9.38954 10.2631 9.34183 10.323 9.30978C10.3829 9.27773 10.4503 9.26254 10.5181 9.26582C10.586 9.26911 10.6516 9.29075 10.7081 9.32844L15.2081 12.3284C15.2596 12.3627 15.3017 12.4091 15.3309 12.4635C15.3601 12.518 15.3754 12.5788 15.3754 12.6406C15.3754 12.7024 15.3601 12.7632 15.3309 12.8177C15.3017 12.8722 15.2596 12.9186 15.2081 12.9528Z" fill="#808080"/>
</svg>
