<svg width="96" height="97" viewBox="0 0 96 97" fill="none" xmlns="http://www.w3.org/2000/svg">
<g filter="url(#filter0_d_1_504)">
<ellipse cx="48.9998" cy="41" rx="9.33333" ry="3.5" stroke="#FAFAFA" stroke-width="1.5" stroke-linecap="round" stroke-linejoin="round" shape-rendering="crispEdges"/>
</g>
<g filter="url(#filter1_d_1_504)">
<path d="M40.4165 41C40.4165 40.5858 40.0807 40.25 39.6665 40.25C39.2523 40.25 38.9165 40.5858 38.9165 41H39.6665H40.4165ZM38.9165 50.3333C38.9165 50.7475 39.2523 51.0833 39.6665 51.0833C40.0807 51.0833 40.4165 50.7475 40.4165 50.3333H39.6665H38.9165ZM45.6227 50.5053C45.2132 50.4432 44.8309 50.7249 44.7688 51.1345C44.7068 51.544 44.9885 51.9263 45.398 51.9884L45.5104 51.2468L45.6227 50.5053ZM59.0832 41C59.0832 40.5858 58.7474 40.25 58.3332 40.25C57.919 40.25 57.5832 40.5858 57.5832 41H58.3332H59.0832ZM39.6665 41H38.9165V50.3333H39.6665H40.4165V41H39.6665ZM45.5104 51.2468L45.398 51.9884C46.515 52.1576 47.7298 52.25 48.9999 52.25V51.5V50.75C47.8013 50.75 46.6618 50.6627 45.6227 50.5053L45.5104 51.2468ZM48.9999 51.5V52.25C51.6432 52.25 54.0698 51.8495 55.8627 51.1772C56.7565 50.8421 57.5318 50.4249 58.0972 49.9236C58.6618 49.4231 59.0832 48.7748 59.0832 48H58.3332H57.5832C57.5832 48.1918 57.4823 48.4642 57.1022 48.8012C56.7229 49.1374 56.1314 49.4745 55.3361 49.7727C53.751 50.3671 51.5109 50.75 48.9999 50.75V51.5ZM58.3332 48H59.0832V41H58.3332H57.5832V48H58.3332Z" fill="#FAFAFA"/>
</g>
<g filter="url(#filter2_d_1_504)">
<path d="M48.1549 57.7353C47.7409 57.7202 47.3931 58.0435 47.3779 58.4574C47.3628 58.8713 47.6861 59.2192 48.1 59.2343L48.1274 58.4848L48.1549 57.7353ZM59.0834 48C59.0834 47.5858 58.7477 47.25 58.3334 47.25C57.9192 47.25 57.5834 47.5858 57.5834 48H58.3334H59.0834ZM37.3335 55.4167C36.9193 55.4167 36.5835 55.7525 36.5835 56.1667C36.5835 56.5809 36.9193 56.9167 37.3335 56.9167V56.1667V55.4167ZM45.5002 56.9167C45.9144 56.9167 46.2502 56.5809 46.2502 56.1667C46.2502 55.7525 45.9144 55.4167 45.5002 55.4167V56.1667V56.9167ZM42.5305 52.1363C42.2376 51.8434 41.7627 51.8434 41.4698 52.1363C41.1769 52.4292 41.1769 52.9041 41.4698 53.197L42.0002 52.6667L42.5305 52.1363ZM45.5002 56.1667L46.0305 56.697C46.3234 56.4041 46.3234 55.9292 46.0305 55.6363L45.5002 56.1667ZM41.4698 59.1363C41.1769 59.4292 41.1769 59.9041 41.4698 60.197C41.7627 60.4899 42.2376 60.4899 42.5305 60.197L42.0002 59.6667L41.4698 59.1363ZM48.1274 58.4848L48.1 59.2343C48.3974 59.2452 48.6983 59.25 49.0001 59.25V58.5V57.75C48.714 57.75 48.4315 57.7455 48.1549 57.7353L48.1274 58.4848ZM49.0001 58.5V59.25C51.6434 59.25 54.07 58.8495 55.863 58.1772C56.7567 57.8421 57.5321 57.4249 58.0975 56.9236C58.662 56.4231 59.0834 55.7748 59.0834 55H58.3334H57.5834C57.5834 55.1918 57.4825 55.4642 57.1024 55.8012C56.7232 56.1374 56.1316 56.4745 55.3363 56.7727C53.7512 57.3671 51.5112 57.75 49.0001 57.75V58.5ZM58.3334 55H59.0834V48H58.3334H57.5834V55H58.3334ZM37.3335 56.1667V56.9167H45.5002V56.1667V55.4167H37.3335V56.1667ZM42.0002 52.6667L41.4698 53.197L44.9698 56.697L45.5002 56.1667L46.0305 55.6363L42.5305 52.1363L42.0002 52.6667ZM45.5002 56.1667L44.9698 55.6363L41.4698 59.1363L42.0002 59.6667L42.5305 60.197L46.0305 56.697L45.5002 56.1667Z" fill="#FAFAFA"/>
</g>
<defs>
<filter id="filter0_d_1_504" x="2.4665" y="0.299999" width="93.0665" height="81.4" filterUnits="userSpaceOnUse" color-interpolation-filters="sRGB">
<feFlood flood-opacity="0" result="BackgroundImageFix"/>
<feColorMatrix in="SourceAlpha" type="matrix" values="0 0 0 0 0 0 0 0 0 0 0 0 0 0 0 0 0 0 127 0" result="hardAlpha"/>
<feOffset/>
<feGaussianBlur stdDeviation="18.225"/>
<feComposite in2="hardAlpha" operator="out"/>
<feColorMatrix type="matrix" values="0 0 0 0 0 0 0 0 0 0 0 0 0 0 0 0 0 0 0.25 0"/>
<feBlend mode="normal" in2="BackgroundImageFix" result="effect1_dropShadow_1_504"/>
<feBlend mode="normal" in="SourceGraphic" in2="effect1_dropShadow_1_504" result="shape"/>
</filter>
<filter id="filter1_d_1_504" x="2.4665" y="3.8" width="93.0665" height="84.9" filterUnits="userSpaceOnUse" color-interpolation-filters="sRGB">
<feFlood flood-opacity="0" result="BackgroundImageFix"/>
<feColorMatrix in="SourceAlpha" type="matrix" values="0 0 0 0 0 0 0 0 0 0 0 0 0 0 0 0 0 0 127 0" result="hardAlpha"/>
<feOffset/>
<feGaussianBlur stdDeviation="18.225"/>
<feComposite in2="hardAlpha" operator="out"/>
<feColorMatrix type="matrix" values="0 0 0 0 0 0 0 0 0 0 0 0 0 0 0 0 0 0 0.25 0"/>
<feBlend mode="normal" in2="BackgroundImageFix" result="effect1_dropShadow_1_504"/>
<feBlend mode="normal" in="SourceGraphic" in2="effect1_dropShadow_1_504" result="shape"/>
</filter>
<filter id="filter2_d_1_504" x="0.133495" y="10.8" width="95.4" height="86.0666" filterUnits="userSpaceOnUse" color-interpolation-filters="sRGB">
<feFlood flood-opacity="0" result="BackgroundImageFix"/>
<feColorMatrix in="SourceAlpha" type="matrix" values="0 0 0 0 0 0 0 0 0 0 0 0 0 0 0 0 0 0 127 0" result="hardAlpha"/>
<feOffset/>
<feGaussianBlur stdDeviation="18.225"/>
<feComposite in2="hardAlpha" operator="out"/>
<feColorMatrix type="matrix" values="0 0 0 0 0 0 0 0 0 0 0 0 0 0 0 0 0 0 0.25 0"/>
<feBlend mode="normal" in2="BackgroundImageFix" result="effect1_dropShadow_1_504"/>
<feBlend mode="normal" in="SourceGraphic" in2="effect1_dropShadow_1_504" result="shape"/>
</filter>
</defs>
</svg>
