<svg width="38" height="39" viewBox="0 0 38 39" fill="none" xmlns="http://www.w3.org/2000/svg">
<path d="M29.0937 4.59619H9.77451C6.69617 4.59619 4.20068 7.09168 4.20068 10.17V28.9399C4.20068 32.0183 6.69617 34.5138 9.77451 34.5138H29.0937C32.172 34.5138 34.6675 32.0183 34.6675 28.9399V10.17C34.6675 7.09168 32.172 4.59619 29.0937 4.59619Z" fill="#6FE451"/>
<path d="M10.8211 20.7608L18.4062 19.5065C18.8812 19.4249 19.2523 19.0612 19.3414 18.5936L20.759 10.9046C20.9 10.1253 20.2246 9.43502 19.4379 9.57604L11.5855 10.9639C11.1031 11.0456 10.732 11.4315 10.6578 11.9139L9.50741 19.4694C9.38866 20.2339 10.0566 20.8944 10.8211 20.7682V20.7608Z" fill="black"/>
<path d="M13.953 22.171L13.6784 23.9819C13.5597 24.7687 14.2499 25.4366 15.0366 25.2882L22.7925 23.8484C23.2675 23.7593 23.6386 23.3808 23.7202 22.9058L25.0265 15.098C25.1601 14.3038 24.455 13.621 23.6683 13.7694L21.9538 14.1034C21.4714 14.1925 21.1077 14.5784 21.0261 15.0609L20.3507 19.373C20.2765 19.8554 19.9054 20.2413 19.4229 20.3304L14.8659 21.2062C14.3835 21.2952 14.0124 21.6886 13.9382 22.171H13.953Z" fill="black"/>
<path d="M19.2747 25.3699L23.8095 24.6574C24.2696 24.5832 24.6259 24.2269 24.7075 23.7742L25.4794 19.232C25.5536 18.7719 25.9173 18.4156 26.3774 18.3488L28.1438 18.0742C28.8712 17.9629 29.4946 18.6012 29.3684 19.3211L27.988 27.2922C27.9138 27.7375 27.5575 28.0937 27.1122 28.168L19.3192 29.5262C18.5919 29.6523 17.9536 29.0289 18.0649 28.3016L18.3767 26.268C18.4509 25.8004 18.8145 25.4367 19.2747 25.3699Z" fill="black"/>
</svg>
