<svg width="138" height="38" viewBox="0 0 138 38" fill="none" xmlns="http://www.w3.org/2000/svg">
<path d="M7.11914 18.6936V18.3139C7.11914 17.002 7.38633 15.8886 7.9121 14.9651C8.43786 14.0416 9.14462 13.3253 10.0151 12.8247C10.8857 12.3241 11.8424 12.0652 12.8853 12.0652C13.9282 12.0652 15.0228 12.2896 15.6693 12.747C16.3157 13.2045 16.7897 13.6878 17.0914 14.2056H17.4965V12.4191H20.0133V27.3848C20.0133 28.1443 19.7892 28.7484 19.3496 29.1972C18.9014 29.6547 18.2981 29.8791 17.5224 29.8791H10.9719V27.6092H16.7122C17.1948 27.6092 17.4448 27.3589 17.4448 26.8497V22.8968H17.0397C16.8587 23.1989 16.5915 23.5096 16.264 23.8289C15.9278 24.1482 15.4883 24.4072 14.9453 24.6057C14.4023 24.8042 13.7127 24.9077 12.8939 24.9077C12.0751 24.9077 10.8943 24.6575 10.0151 24.1655C9.136 23.6736 8.43786 22.9572 7.9121 22.0251C7.39495 21.093 7.13638 19.9796 7.13638 18.685L7.11914 18.6936ZM13.5834 22.6551C14.7039 22.6551 15.6348 22.3013 16.3674 21.5849C17.1 20.8686 17.462 19.8847 17.462 18.6246V18.4002C17.462 17.1056 17.1 16.113 16.376 15.4139C15.652 14.7148 14.7212 14.3696 13.5834 14.3696C12.4457 14.3696 11.558 14.7148 10.8253 15.4139C10.0927 16.113 9.73072 17.1056 9.73072 18.4002V18.6246C9.73072 19.8847 10.0927 20.8686 10.8253 21.5849C11.558 22.3013 12.4716 22.6551 13.5834 22.6551Z" fill="black"/>
<path d="M21.9355 24.8473V12.4277H24.4782V13.8863H24.8833C25.0815 13.3684 25.409 12.9801 25.8486 12.7384C26.2968 12.4967 26.8398 12.3759 27.4949 12.3759H28.9773V14.7148H27.3914C26.5554 14.7148 25.8658 14.9479 25.3315 15.4053C24.7971 15.8714 24.5299 16.5791 24.5299 17.5371V24.8387H21.9355V24.8473Z" fill="black"/>
<path d="M35.0191 25.1926C33.7608 25.1926 32.6661 24.925 31.7267 24.3985C30.7872 23.8721 30.0546 23.1212 29.5288 22.1545C29.003 21.1879 28.7358 20.0659 28.7358 18.7885V18.4865C28.7358 17.1919 28.9944 16.0612 29.5116 15.0946C30.0287 14.1279 30.7527 13.3857 31.6836 12.8506C32.6144 12.3241 33.6918 12.0566 34.9157 12.0566C36.1396 12.0566 37.1481 12.3241 38.0444 12.8506C38.9408 13.3771 39.639 14.1107 40.1475 15.0514C40.6474 15.9922 40.906 17.0883 40.906 18.3484V19.3323H31.3733C31.4078 20.4198 31.7698 21.2915 32.4679 21.9388C33.166 22.5861 34.028 22.9054 35.0709 22.9054C36.1138 22.9054 36.7774 22.6896 37.2687 22.2495C37.76 21.8093 38.1479 21.3087 38.4151 20.7391L40.5526 21.8438C40.3199 22.3099 39.9751 22.8105 39.5355 23.3283C39.0873 23.8462 38.5099 24.2863 37.7859 24.6402C37.0619 24.9941 36.1396 25.1667 35.0191 25.1667V25.1926ZM31.3991 17.3645H38.2685C38.1996 16.4237 37.8634 15.6901 37.2601 15.1636C36.6568 14.6372 35.8638 14.3696 34.8985 14.3696C33.9331 14.3696 33.1316 14.6372 32.5196 15.1636C31.9077 15.6901 31.537 16.4237 31.3991 17.3645Z" fill="black"/>
<path d="M47.8273 25.1926C46.5689 25.1926 45.4742 24.925 44.5348 24.3985C43.5953 23.8721 42.8627 23.1212 42.3369 22.1545C41.8111 21.1879 41.5439 20.0659 41.5439 18.7885V18.4865C41.5439 17.1919 41.8025 16.0612 42.3197 15.0946C42.8368 14.1279 43.5608 13.3857 44.4917 12.8506C45.4225 12.3241 46.4999 12.0566 47.7238 12.0566C48.9477 12.0566 49.9562 12.3241 50.8525 12.8506C51.7489 13.3771 52.4471 14.1107 52.9556 15.0514C53.4555 15.9922 53.7141 17.0883 53.7141 18.3484V19.3323H44.1814C44.2159 20.4198 44.5779 21.2915 45.276 21.9388C45.9741 22.5861 46.8361 22.9054 47.879 22.9054C48.9219 22.9054 49.5855 22.6896 50.0768 22.2495C50.5681 21.8093 50.956 21.3087 51.2232 20.7391L53.3607 21.8438C53.128 22.3099 52.7832 22.8105 52.3436 23.3283C51.8955 23.8462 51.318 24.2863 50.594 24.6402C49.87 24.9941 48.9477 25.1667 47.8273 25.1667V25.1926ZM44.1986 17.3645H51.068C50.9991 16.4237 50.6629 15.6901 50.0596 15.1636C49.4563 14.6372 48.6633 14.3696 47.698 14.3696C46.7326 14.3696 45.9311 14.6372 45.3191 15.1636C44.7071 15.6901 44.3365 16.4237 44.1986 17.3645Z" fill="black"/>
<path d="M54.9468 24.8473V12.4277H57.4894V14.2919H57.8945C58.1272 13.7914 58.5495 13.3167 59.1529 12.8851C59.7562 12.445 60.6526 12.2292 61.842 12.2292C63.0315 12.2292 63.6176 12.4363 64.3416 12.8592C65.0742 13.2821 65.643 13.869 66.0654 14.6372C66.4877 15.4053 66.6946 16.3202 66.6946 17.399V24.856H64.1002V17.5975C64.1002 16.5273 63.833 15.7333 63.2987 15.2154C62.7643 14.7062 62.023 14.4473 61.0836 14.4473C60.1441 14.4473 59.1529 14.8011 58.5065 15.5089C57.86 16.2166 57.5411 17.235 57.5411 18.5814V24.856H54.9468V24.8473Z" fill="black"/>
<path d="M85.441 25.1839C84.4153 25.1839 83.4672 24.9336 82.5967 24.4244C81.7262 23.9238 81.028 23.1902 80.4936 22.2495C79.9679 21.3001 79.7007 20.1522 79.7007 18.8144V18.4347C79.7007 17.1056 79.9593 15.9663 80.4764 15.0083C80.9935 14.0503 81.6917 13.3167 82.5622 12.8161C83.4327 12.3155 84.3895 12.0566 85.4324 12.0566C86.4753 12.0566 86.9148 12.1601 87.4579 12.3586C88.0009 12.5571 88.449 12.8161 88.8024 13.1268C89.1558 13.4375 89.423 13.7568 89.604 14.0934H90.0091V7.18883H92.6034V24.8214H90.0608V23.0608H89.6557C89.3368 23.5959 88.8541 24.0878 88.2077 24.5194C87.5613 24.9595 86.639 25.1753 85.4237 25.1753L85.441 25.1839ZM86.165 22.9227C87.2855 22.9227 88.2163 22.5602 88.9489 21.8438C89.6816 21.1188 90.0436 20.0918 90.0436 18.7454V18.521C90.0436 17.1919 89.6816 16.1734 88.9576 15.4484C88.2336 14.7235 87.3027 14.361 86.165 14.361C85.0273 14.361 84.1395 14.7235 83.4069 15.4484C82.6743 16.1734 82.3123 17.1919 82.3123 18.521V18.7454C82.3123 20.0918 82.6743 21.1188 83.4069 21.8438C84.1395 22.5688 85.0531 22.9227 86.165 22.9227Z" fill="black"/>
<path d="M98.3953 25.1839C97.5076 25.1839 96.7146 25.0286 96.0165 24.7265C95.3183 24.4244 94.7667 23.9756 94.353 23.3887C93.9393 22.8018 93.7324 22.0855 93.7324 21.2483C93.7324 20.4111 93.9393 19.6861 94.353 19.1165C94.7667 18.5555 95.327 18.1326 96.0423 17.8478C96.7577 17.563 97.5679 17.4163 98.4729 17.4163H102.248V16.6136C102.248 15.8886 102.033 15.3104 101.593 14.8788C101.153 14.4387 100.49 14.2229 99.5848 14.2229C98.6798 14.2229 98.0161 14.43 97.5507 14.8529C97.0852 15.2758 96.775 15.8196 96.6198 16.4928L94.2065 15.716C94.4047 15.0428 94.7322 14.4387 95.1718 13.8863C95.62 13.3426 96.2061 12.9024 96.9473 12.5658C97.6886 12.2292 98.5763 12.0652 99.6106 12.0652C101.222 12.0652 102.489 12.4795 103.412 13.2994C104.334 14.1193 104.799 15.2931 104.799 16.8035V21.9129C104.799 22.4135 105.032 22.6724 105.506 22.6724H106.566V24.8387H104.627C104.041 24.8387 103.558 24.6833 103.196 24.3813C102.826 24.0792 102.645 23.6649 102.645 23.1471V23.0694H102.265C102.127 23.3197 101.929 23.6131 101.662 23.9497C101.395 24.2863 100.998 24.5798 100.481 24.8214C99.964 25.0631 99.2745 25.1839 98.4212 25.1839H98.3953ZM98.7746 23.0435C99.8175 23.0435 100.654 22.7414 101.291 22.1459C101.929 21.5504 102.248 20.7305 102.248 19.6861V19.4359H98.6281C97.9385 19.4359 97.3869 19.5826 96.9646 19.876C96.5422 20.1695 96.3354 20.601 96.3354 21.1706C96.3354 21.7403 96.5509 22.1977 96.9904 22.5343C97.43 22.8709 98.0247 23.0349 98.7746 23.0349V23.0435Z" fill="black"/>
<path d="M112.152 25.1839C110.574 25.1839 109.264 24.8301 108.23 24.1223C107.187 23.4146 106.549 22.353 106.316 20.9203L108.73 20.3421C108.868 21.0325 109.092 21.5763 109.411 21.9819C109.73 22.3876 110.126 22.6724 110.609 22.8364C111.083 23.0003 111.6 23.0867 112.152 23.0867C112.97 23.0867 113.608 22.9313 114.048 22.612C114.496 22.2926 114.711 21.8784 114.711 21.3778C114.711 20.8772 114.505 20.5061 114.082 20.273C113.66 20.04 113.039 19.8415 112.22 19.6948L111.367 19.5394C110.531 19.3841 109.764 19.1683 109.075 18.8835C108.385 18.5987 107.842 18.2017 107.437 17.7011C107.032 17.2005 106.834 16.5532 106.834 15.7592C106.834 14.5854 107.273 13.6705 108.144 13.0232C109.014 12.3759 110.169 12.0566 111.617 12.0566C113.065 12.0566 114.151 12.3673 115.048 12.9973C115.944 13.6274 116.53 14.4818 116.797 15.552L114.384 16.2338C114.229 15.4743 113.918 14.9479 113.427 14.6372C112.944 14.3265 112.333 14.1711 111.617 14.1711C110.902 14.1711 110.359 14.3006 109.954 14.5595C109.549 14.8184 109.35 15.1895 109.35 15.6556C109.35 16.1216 109.549 16.5273 109.945 16.7603C110.342 16.9934 110.867 17.1746 111.54 17.2868L112.419 17.4421C113.306 17.5975 114.117 17.8046 114.858 18.0722C115.599 18.3397 116.177 18.7281 116.608 19.2287C117.039 19.7293 117.245 20.4025 117.245 21.2397C117.245 22.4825 116.78 23.4491 115.858 24.1396C114.935 24.8301 113.694 25.1753 112.134 25.1753L112.152 25.1839Z" fill="black"/>
<path d="M118.392 24.8301V7.19746H120.986V14.1711H121.391C121.555 13.8518 121.796 13.5411 122.106 13.239C122.417 12.9369 122.83 12.6866 123.339 12.4967C123.847 12.3069 124.503 12.2033 125.287 12.2033C126.071 12.2033 127.062 12.4104 127.786 12.8333C128.519 13.2562 129.088 13.8431 129.51 14.6113C129.933 15.3794 130.139 16.2943 130.139 17.3731V24.8301H127.545V17.5716C127.545 16.5014 127.278 15.7074 126.743 15.1895C126.209 14.6803 125.468 14.4214 124.528 14.4214C123.589 14.4214 122.598 14.7753 121.951 15.483C121.305 16.1907 120.986 17.2091 120.986 18.5555V24.8301H118.392Z" fill="black"/>
<path d="M67.8149 19.151L72.5726 18.4433C72.8656 18.4002 73.107 18.1758 73.1587 17.8737L74.0895 13.0664C74.1844 12.5744 73.762 12.1429 73.2707 12.2206L68.3406 13.0146C68.039 13.0664 67.8062 13.2994 67.7545 13.6015L66.9874 18.3311C66.9099 18.8144 67.3236 19.2287 67.8062 19.1597L67.8149 19.151Z" fill="#6FE451"/>
<path d="M69.7716 20.0745L69.5906 21.2052C69.5131 21.6971 69.944 22.12 70.4353 22.0423L75.3051 21.2224C75.6067 21.1706 75.8395 20.9376 75.8912 20.6355L76.7531 15.7505C76.8393 15.2499 76.4083 14.8184 75.9084 14.9047L74.831 15.0946C74.5294 15.1464 74.2966 15.388 74.2449 15.6901L73.7967 18.3915C73.745 18.6936 73.5123 18.9266 73.2106 18.9871L70.3491 19.4876C70.0474 19.5394 69.8147 19.7811 69.763 20.0832L69.7716 20.0745Z" fill="#6FE451"/>
<path d="M73.0898 22.1373L75.9341 21.7403C76.2186 21.6971 76.4513 21.4813 76.503 21.1965L77.0115 18.357C77.0632 18.0722 77.296 17.8478 77.5804 17.8133L78.6922 17.6579C79.1491 17.5975 79.5369 18.0032 79.4507 18.452L78.5371 23.4405C78.4854 23.7253 78.2613 23.9411 77.9855 23.9843L73.0985 24.761C72.6417 24.8301 72.2452 24.4331 72.3227 23.9756L72.5296 22.6983C72.5727 22.4048 72.8054 22.1804 73.0985 22.1459L73.0898 22.1373Z" fill="#6FE451"/>
</svg>
