<svg width="21" height="20" viewBox="0 0 21 20" fill="none" xmlns="http://www.w3.org/2000/svg">
<path d="M10.3701 0.719727C8.59009 0.719727 6.85003 1.24757 5.36999 2.2365C3.88995 3.22543 2.73639 4.63104 2.05521 6.27558C1.37402 7.92011 1.19579 9.72971 1.54305 11.4755C1.89032 13.2214 2.74749 14.825 4.00616 16.0837C5.26483 17.3424 6.86848 18.1995 8.61431 18.5468C10.3601 18.8941 12.1697 18.7158 13.8143 18.0346C15.4588 17.3535 16.8644 16.1999 17.8533 14.7199C18.8423 13.2398 19.3701 11.4998 19.3701 9.71973C19.3701 7.33278 18.4219 5.04359 16.7341 3.35577C15.0463 1.66794 12.7571 0.719727 10.3701 0.719727ZM14.6001 7.17973L10.1601 13.3397C10.0279 13.5183 9.83486 13.6423 9.61749 13.6883C9.40012 13.7344 9.17342 13.6993 8.98012 13.5897L6.43012 12.0997C6.22325 11.9751 6.07437 11.7734 6.01624 11.5389C5.9581 11.3045 5.99547 11.0566 6.12012 10.8497C6.24477 10.6429 6.4465 10.494 6.68092 10.4358C6.91534 10.3777 7.16325 10.4151 7.37012 10.5397L9.18012 11.6197L13.1801 6.12973C13.3286 5.981 13.5244 5.88891 13.7336 5.86942C13.9429 5.84993 14.1523 5.90427 14.3257 6.02302C14.499 6.14176 14.6254 6.31743 14.6828 6.51957C14.7403 6.7217 14.7252 6.93756 14.6401 7.12973L14.6001 7.17973Z" fill="white"/>
</svg>
